<?xml version="1.0" encoding="utf-8"?>
<!-- Generator: Adobe Illustrator 24.2.1, SVG Export Plug-In . SVG Version: 6.00 Build 0)  -->
<svg version="1.1" id="Layer_1" xmlns="http://www.w3.org/2000/svg" xmlns:xlink="http://www.w3.org/1999/xlink" x="0px" y="0px"
	 viewBox="0 0 544.2 544.2" style="enable-background:new 0 0 544.2 544.2;" xml:space="preserve">
<g>
	<path style="fill:#212529;" d="M272.1,0C2.1,0,0,121.8,0,272.1s2.1,272.1,272.1,272.1s272.1-121.8,272.1-272.1S542.1,0,272.1,0z"/>
</g>
<g id="Homepage">
	<g id="Home-final">
		<g id="Heading">
			<g id="logo">
				<polygon id="Fill-13" style="fill-rule:evenodd;clip-rule:evenodd;fill:#F6A623;" points="361.1,421.6 324.3,421.6 257.3,342.6 
					266.5,330.4 316.9,383.3 285.8,283.4 305.3,269 				"/>
				<polygon id="Fill-15" style="fill-rule:evenodd;clip-rule:evenodd;fill:#F6A623;" points="144.5,230 189,221 186.5,229.6 
					165.7,243.7 185.5,263.9 178.1,278.8 142.2,244.8 				"/>
				<polygon id="Fill-17" style="fill-rule:evenodd;clip-rule:evenodd;fill:#F6A623;" points="276.8,205.7 397.6,176.2 402,198.4 
					320.5,259.1 314.7,247.1 376,197.3 285.6,213.4 				"/>
				<polygon id="Fill-19" style="fill-rule:evenodd;clip-rule:evenodd;fill:#F6A623;" points="240.9,122.9 252.7,122.6 309.2,280 
					177.1,392.4 187.7,356.9 289,276.7 248.1,154.3 176.9,392.6 151.4,392.6 				"/>
			</g>
		</g>
	</g>
</g>
</svg>
